<svg xmlns="http://www.w3.org/2000/svg" width="96" height="96" viewBox="0 0 96 96">
    <path d="M13.71 22.277c-1.096 0-2.08.445-2.79 1.162-.705.712-1.143 1.697-1.143 2.789 0 1.088.44 2.072 1.145 2.785.716.722 1.704 1.166 2.788 1.166l8.695.004c5.196.147 10.071 3.572 13.537 9.163l13.55 21.917c5.114 8.03 12.542 12.49 20.31 12.49h2.967l-2.232 2.24c-.633.719-.96 1.638-.96 2.567 0 .994.375 1.996 1.127 2.766.788.79 1.783 1.174 2.809 1.174 1.027 0 2.023-.386 2.793-1.158l8.95-8.98c.646-.741.967-1.662.967-2.582 0-1.006-.383-2.013-1.155-2.786l-8.965-8.952c-.741-.646-1.663-.968-2.583-.968-1.005 0-2.013.384-2.785 1.158-.772.773-1.155 1.78-1.155 2.786 0 1.005.383 2.012 1.155 2.785l2.042 2.046-3.298-.003c-5.198-.143-10.076-3.57-13.543-9.175L42.478 34.898c-4.98-7.904-12.195-12.621-28.768-12.621zm27.433 30.611c-.66-.424-1.407-.625-2.306-.42-.507.116-1.121.385-1.832 1.025-.737.664-1.715 1.878-3.012 4.01C30.68 62.95 26 66.235 21.006 66.235l-7.785.007c-.93.06-1.761.469-2.374 1.098-.66.678-1.07 1.615-1.07 2.653 0 1.035.41 1.971 1.071 2.65.67.687 1.595 1.109 2.609 1.109l7.956-.006c7.269-.18 14.155-4.558 18.86-12.296l2.195-3.625c.43-.83.525-1.754.326-2.607-.216-.93-.782-1.78-1.651-2.33zM73.756 13.5c-.987 0-1.976.37-2.734 1.117-.758.746-1.134 1.718-1.134 2.688 0 .97.376 1.942 1.134 2.687l2.008 1.978-3.579.002c-7.608.154-14.85 4.593-19.787 12.444l-1.466 2.355c-.45.84-.55 1.777-.342 2.642.227.942.817 1.804 1.76 2.38.626.37 1.317.55 2.005.55 1.294 0 2.558-.649 3.285-1.8l1.566-2.49c3.46-5.303 8.268-8.476 13.389-8.476h3.159l-2.198 2.172c-.633.716-.948 1.604-.948 2.492 0 .97.376 1.941 1.133 2.687.756.745 1.733 1.117 2.742 1.117 1.008 0 1.985-.372 2.74-1.117l8.788-8.669c.628-.723.938-1.616.933-2.507-.006-.978-.391-1.95-1.15-2.682l-8.768-8.634c-.729-.626-1.633-.936-2.536-.936z"/>
</svg>
