<svg xmlns="http://www.w3.org/2000/svg" width="96" height="96" viewBox="0 0 96 96">
    <path fill="#222" d="M81.636 71C83.494 71 85 72.567 85 74.5S83.494 78 81.636 78H14.364C12.506 78 11 76.433 11 74.5s1.506-3.5 3.364-3.5zm0-23C83.494 48 85 49.567 85 51.5S83.494 55 81.636 55H14.364C12.506 55 11 53.433 11 51.5s1.506-3.5 3.364-3.5zM67.025 17.862l.05.026 16.759 9.19c.519.285.841.83.841 1.422 0 .574-.303 1.104-.795 1.395l-.046.027-16.759 9.19c-.502.275-1.112.264-1.605-.028-.477-.282-.776-.789-.794-1.34V19.31c0-.573.302-1.103.794-1.394.477-.282 1.062-.302 1.555-.054zM51.5 25c1.933 0 3.5 1.567 3.5 3.5S53.433 32 51.5 32h-37c-1.933 0-3.5-1.567-3.5-3.5s1.567-3.5 3.5-3.5h37z"/>
</svg>
